<?xml version="1.0" encoding="UTF-8" standalone="no"?>
<!DOCTYPE svg PUBLIC "-//W3C//DTD SVG 1.1//EN"
 "http://www.w3.org/Graphics/SVG/1.1/DTD/svg11.dtd">
<!-- Generated by graphviz version 2.38.0 (20140413.2041)
 -->
<!-- Title: %3 Pages: 1 -->
<svg width="1997pt" height="260pt"
 viewBox="0.00 0.00 1996.52 260.00" xmlns="http://www.w3.org/2000/svg" xmlns:xlink="http://www.w3.org/1999/xlink">
<g id="graph0" class="graph" transform="scale(1 1) rotate(0) translate(4 256)">
<title>%3</title>
<polygon fill="white" stroke="none" points="-4,4 -4,-256 1992.52,-256 1992.52,4 -4,4"/>
<g id="clust1" class="cluster"><title>cluster_scrapyard</title>
<polygon fill="none" stroke="black" points="8,-89 8,-163 504.795,-163 504.795,-89 8,-89"/>
<text text-anchor="middle" x="256.397" y="-147.8" font-family="Helvetica,sans-Serif" font-size="14.00">Scrapyard</text>
</g>
<g id="clust2" class="cluster"><title>cluster_swamp</title>
<polygon fill="none" stroke="black" points="524.795,-89 524.795,-163 1098.66,-163 1098.66,-89 524.795,-89"/>
<text text-anchor="middle" x="811.729" y="-147.8" font-family="Helvetica,sans-Serif" font-size="14.00">Swamp</text>
</g>
<g id="clust3" class="cluster"><title>cluster_space</title>
<polygon fill="none" stroke="black" points="1118.66,-8 1118.66,-244 1809.92,-244 1809.92,-8 1118.66,-8"/>
<text text-anchor="middle" x="1464.29" y="-228.8" font-family="Helvetica,sans-Serif" font-size="14.00">Space</text>
</g>
<g id="clust5" class="cluster"><title>cluster_pony_head_bay</title>
<polygon fill="none" stroke="black" points="1829.92,-89 1829.92,-163 1980.52,-163 1980.52,-89 1829.92,-89"/>
<text text-anchor="middle" x="1905.22" y="-147.8" font-family="Helvetica,sans-Serif" font-size="14.00">Ponyhead Bay</text>
</g>
<!-- Glitch I -->
<g id="node1" class="node"><title>Glitch I</title>
<g id="a_node1"><a xlink:href="sections/03-html-basics/02-html-anatomy.md#level---glitch-ii-iv" xlink:title="Glitch I">
<path fill="none" stroke="black" stroke-width="0.5" d="M1684.77,-52C1684.77,-52 1654.77,-52 1654.77,-52 1648.77,-52 1642.77,-46 1642.77,-40 1642.77,-40 1642.77,-28 1642.77,-28 1642.77,-22 1648.77,-16 1654.77,-16 1654.77,-16 1684.77,-16 1684.77,-16 1690.77,-16 1696.77,-22 1696.77,-28 1696.77,-28 1696.77,-40 1696.77,-40 1696.77,-46 1690.77,-52 1684.77,-52"/>
<text text-anchor="middle" x="1669.77" y="-30.7" font-family="Helvetica,sans-Serif" font-size="11.00" fill="#0000ff">Glitch I</text>
</a>
</g>
</g>
<!-- Space exit -->
<g id="node18" class="node"><title>Space exit</title>
<path fill="none" stroke="black" stroke-width="0.5" d="M1790.1,-133C1790.1,-133 1746.37,-133 1746.37,-133 1740.37,-133 1734.37,-127 1734.37,-121 1734.37,-121 1734.37,-109 1734.37,-109 1734.37,-103 1740.37,-97 1746.37,-97 1746.37,-97 1790.1,-97 1790.1,-97 1796.1,-97 1802.1,-103 1802.1,-109 1802.1,-109 1802.1,-121 1802.1,-121 1802.1,-127 1796.1,-133 1790.1,-133"/>
<text text-anchor="middle" x="1768.24" y="-111.7" font-family="Helvetica,sans-Serif" font-size="11.00" fill="#000000">Space exit</text>
</g>
<!-- Glitch I&#45;&gt;Space exit -->
<g id="edge17" class="edge"><title>Glitch I&#45;&gt;Space exit</title>
<path fill="none" stroke="black" d="M1692.66,-52.3802C1706.07,-63.6438 1723.41,-78.2002 1737.99,-90.4434"/>
<polygon fill="black" stroke="black" points="1735.86,-93.2215 1745.76,-96.9716 1740.36,-87.8607 1735.86,-93.2215"/>
</g>
<!-- Controlling Arca -->
<g id="node2" class="node"><title>Controlling Arca</title>
<g id="a_node2"><a xlink:href="sections/02-tutorial/01-control-arca.md" xlink:title="Controlling Arca">
<path fill="none" stroke="black" stroke-width="0.5" d="M97.4835,-133C97.4835,-133 28.1717,-133 28.1717,-133 22.1717,-133 16.1717,-127 16.1717,-121 16.1717,-121 16.1717,-109 16.1717,-109 16.1717,-103 22.1717,-97 28.1717,-97 28.1717,-97 97.4835,-97 97.4835,-97 103.484,-97 109.484,-103 109.484,-109 109.484,-109 109.484,-121 109.484,-121 109.484,-127 103.484,-133 97.4835,-133"/>
<text text-anchor="middle" x="62.8276" y="-111.7" font-family="Helvetica,sans-Serif" font-size="11.00" fill="#0000ff">Controlling Arca</text>
</a>
</g>
</g>
<!-- Jump Lengths -->
<g id="node3" class="node"><title>Jump Lengths</title>
<g id="a_node3"><a xlink:href="sections/02-tutorial/01-control-arca.md#level---jump-lengths" xlink:title="Jump Lengths">
<path fill="none" stroke="black" stroke-width="0.5" d="M218.804,-133C218.804,-133 157.606,-133 157.606,-133 151.606,-133 145.606,-127 145.606,-121 145.606,-121 145.606,-109 145.606,-109 145.606,-103 151.606,-97 157.606,-97 157.606,-97 218.804,-97 218.804,-97 224.804,-97 230.804,-103 230.804,-109 230.804,-109 230.804,-121 230.804,-121 230.804,-127 224.804,-133 218.804,-133"/>
<text text-anchor="middle" x="188.205" y="-111.7" font-family="Helvetica,sans-Serif" font-size="11.00" fill="#0000ff">Jump Lengths</text>
</a>
</g>
</g>
<!-- Controlling Arca&#45;&gt;Jump Lengths -->
<g id="edge1" class="edge"><title>Controlling Arca&#45;&gt;Jump Lengths</title>
<path fill="none" stroke="black" d="M109.769,-115C118.049,-115 126.735,-115 135.174,-115"/>
<polygon fill="black" stroke="black" points="135.3,-118.5 145.3,-115 135.3,-111.5 135.3,-118.5"/>
</g>
<!-- Scrapyard play level -->
<g id="node15" class="node"><title>Scrapyard play level</title>
<path fill="none" stroke="black" stroke-width="0.5" d="M369.827,-133C369.827,-133 278.73,-133 278.73,-133 272.73,-133 266.73,-127 266.73,-121 266.73,-121 266.73,-109 266.73,-109 266.73,-103 272.73,-97 278.73,-97 278.73,-97 369.827,-97 369.827,-97 375.827,-97 381.827,-103 381.827,-109 381.827,-109 381.827,-121 381.827,-121 381.827,-127 375.827,-133 369.827,-133"/>
<text text-anchor="middle" x="324.279" y="-111.7" font-family="Helvetica,sans-Serif" font-size="11.00" fill="#000000">Scrapyard play level</text>
</g>
<!-- Jump Lengths&#45;&gt;Scrapyard play level -->
<g id="edge2" class="edge"><title>Jump Lengths&#45;&gt;Scrapyard play level</title>
<path fill="none" stroke="black" d="M230.892,-115C238.958,-115 247.599,-115 256.24,-115"/>
<polygon fill="black" stroke="black" points="256.349,-118.5 266.349,-115 256.349,-111.5 256.349,-118.5"/>
</g>
<!-- Editing Text I -->
<g id="node4" class="node"><title>Editing Text I</title>
<g id="a_node4"><a xlink:href="sections/02-tutorial/03-editing-levels.md#level---editing-text-i" xlink:title="Editing Text I">
<path fill="none" stroke="black" stroke-width="0.5" d="M599.469,-133C599.469,-133 544.903,-133 544.903,-133 538.903,-133 532.903,-127 532.903,-121 532.903,-121 532.903,-109 532.903,-109 532.903,-103 538.903,-97 544.903,-97 544.903,-97 599.469,-97 599.469,-97 605.469,-97 611.469,-103 611.469,-109 611.469,-109 611.469,-121 611.469,-121 611.469,-127 605.469,-133 599.469,-133"/>
<text text-anchor="middle" x="572.186" y="-111.7" font-family="Helvetica,sans-Serif" font-size="11.00" fill="#0000ff">Editing Text I</text>
</a>
</g>
</g>
<!-- Swamp play -->
<g id="node5" class="node"><title>Swamp play</title>
<g id="a_node5"><a xlink:href="sections/02-tutorial/03-editing-levels.md#level---play" xlink:title="Swamp play">
<path fill="none" stroke="black" stroke-width="0.5" d="M711.45,-133C711.45,-133 659.62,-133 659.62,-133 653.62,-133 647.62,-127 647.62,-121 647.62,-121 647.62,-109 647.62,-109 647.62,-103 653.62,-97 659.62,-97 659.62,-97 711.45,-97 711.45,-97 717.45,-97 723.45,-103 723.45,-109 723.45,-109 723.45,-121 723.45,-121 723.45,-127 717.45,-133 711.45,-133"/>
<text text-anchor="middle" x="685.535" y="-111.7" font-family="Helvetica,sans-Serif" font-size="11.00" fill="#0000ff">Swamp play</text>
</a>
</g>
</g>
<!-- Editing Text I&#45;&gt;Swamp play -->
<g id="edge5" class="edge"><title>Editing Text I&#45;&gt;Swamp play</title>
<path fill="none" stroke="black" d="M611.506,-115C619.735,-115 628.527,-115 637.056,-115"/>
<polygon fill="black" stroke="black" points="637.274,-118.5 647.274,-115 637.274,-111.5 637.274,-118.5"/>
</g>
<!-- Editing Text II -->
<g id="node6" class="node"><title>Editing Text II</title>
<g id="a_node6"><a xlink:href="sections/02-tutorial/03-editing-levels.md#level---editing-text-ii" xlink:title="Editing Text II">
<path fill="none" stroke="black" stroke-width="0.5" d="M829.251,-133C829.251,-133 771.573,-133 771.573,-133 765.573,-133 759.573,-127 759.573,-121 759.573,-121 759.573,-109 759.573,-109 759.573,-103 765.573,-97 771.573,-97 771.573,-97 829.251,-97 829.251,-97 835.251,-97 841.251,-103 841.251,-109 841.251,-109 841.251,-121 841.251,-121 841.251,-127 835.251,-133 829.251,-133"/>
<text text-anchor="middle" x="800.412" y="-111.7" font-family="Helvetica,sans-Serif" font-size="11.00" fill="#0000ff">Editing Text II</text>
</a>
</g>
</g>
<!-- Swamp play&#45;&gt;Editing Text II -->
<g id="edge6" class="edge"><title>Swamp play&#45;&gt;Editing Text II</title>
<path fill="none" stroke="black" d="M723.495,-115C731.721,-115 740.576,-115 749.232,-115"/>
<polygon fill="black" stroke="black" points="749.253,-118.5 759.253,-115 749.253,-111.5 749.253,-118.5"/>
</g>
<!-- Editing Text III -->
<g id="node7" class="node"><title>Editing Text III</title>
<g id="a_node7"><a xlink:href="sections/02-tutorial/03-editing-levels.md#level---editing-text-iii" xlink:title="Editing Text III">
<path fill="none" stroke="black" stroke-width="0.5" d="M950.174,-133C950.174,-133 889.383,-133 889.383,-133 883.383,-133 877.383,-127 877.383,-121 877.383,-121 877.383,-109 877.383,-109 877.383,-103 883.383,-97 889.383,-97 889.383,-97 950.174,-97 950.174,-97 956.174,-97 962.174,-103 962.174,-109 962.174,-109 962.174,-121 962.174,-121 962.174,-127 956.174,-133 950.174,-133"/>
<text text-anchor="middle" x="919.779" y="-111.7" font-family="Helvetica,sans-Serif" font-size="11.00" fill="#0000ff">Editing Text III</text>
</a>
</g>
</g>
<!-- Editing Text II&#45;&gt;Editing Text III -->
<g id="edge7" class="edge"><title>Editing Text II&#45;&gt;Editing Text III</title>
<path fill="none" stroke="black" d="M841.474,-115C849.779,-115 858.64,-115 867.288,-115"/>
<polygon fill="black" stroke="black" points="867.297,-118.5 877.297,-115 867.297,-111.5 867.297,-118.5"/>
</g>
<!-- Introduce portal -->
<g id="node17" class="node"><title>Introduce portal</title>
<path fill="none" stroke="black" stroke-width="0.5" d="M1078.88,-133C1078.88,-133 1010.01,-133 1010.01,-133 1004.01,-133 998.007,-127 998.007,-121 998.007,-121 998.007,-109 998.007,-109 998.007,-103 1004.01,-97 1010.01,-97 1010.01,-97 1078.88,-97 1078.88,-97 1084.88,-97 1090.88,-103 1090.88,-109 1090.88,-109 1090.88,-121 1090.88,-121 1090.88,-127 1084.88,-133 1078.88,-133"/>
<text text-anchor="middle" x="1044.44" y="-111.7" font-family="Helvetica,sans-Serif" font-size="11.00" fill="#000000">Introduce portal</text>
</g>
<!-- Editing Text III&#45;&gt;Introduce portal -->
<g id="edge8" class="edge"><title>Editing Text III&#45;&gt;Introduce portal</title>
<path fill="none" stroke="black" d="M962.308,-115C970.6,-115 979.434,-115 988.106,-115"/>
<polygon fill="black" stroke="black" points="988.171,-118.5 998.171,-115 988.171,-111.5 988.171,-118.5"/>
</g>
<!-- Space play -->
<g id="node8" class="node"><title>Space play</title>
<g id="a_node8"><a xlink:href="sections/03-html-basics/02-html-anatomy.md#level---play-i" xlink:title="Space play">
<path fill="none" stroke="black" stroke-width="0.5" d="M1185.3,-133C1185.3,-133 1138.45,-133 1138.45,-133 1132.45,-133 1126.45,-127 1126.45,-121 1126.45,-121 1126.45,-109 1126.45,-109 1126.45,-103 1132.45,-97 1138.45,-97 1138.45,-97 1185.3,-97 1185.3,-97 1191.3,-97 1197.3,-103 1197.3,-109 1197.3,-109 1197.3,-121 1197.3,-121 1197.3,-127 1191.3,-133 1185.3,-133"/>
<text text-anchor="middle" x="1161.87" y="-111.7" font-family="Helvetica,sans-Serif" font-size="11.00" fill="#0000ff">Space play</text>
</a>
</g>
</g>
<!-- Creating elements I -->
<g id="node9" class="node"><title>Creating elements I</title>
<g id="a_node9"><a xlink:href="sections/03-html-basics/02-html-anatomy.md#level---creating-elements-i" xlink:title="Creating elements I">
<path fill="none" stroke="black" stroke-width="0.5" d="M1332.66,-133C1332.66,-133 1244.9,-133 1244.9,-133 1238.9,-133 1232.9,-127 1232.9,-121 1232.9,-121 1232.9,-109 1232.9,-109 1232.9,-103 1238.9,-97 1244.9,-97 1244.9,-97 1332.66,-97 1332.66,-97 1338.66,-97 1344.66,-103 1344.66,-109 1344.66,-109 1344.66,-121 1344.66,-121 1344.66,-127 1338.66,-133 1332.66,-133"/>
<text text-anchor="middle" x="1288.78" y="-111.7" font-family="Helvetica,sans-Serif" font-size="11.00" fill="#0000ff">Creating elements I</text>
</a>
</g>
</g>
<!-- Space play&#45;&gt;Creating elements I -->
<g id="edge10" class="edge"><title>Space play&#45;&gt;Creating elements I</title>
<path fill="none" stroke="black" d="M1197.34,-115C1205.22,-115 1213.86,-115 1222.58,-115"/>
<polygon fill="black" stroke="black" points="1222.79,-118.5 1232.79,-115 1222.79,-111.5 1222.79,-118.5"/>
</g>
<!-- Creating elements II -->
<g id="node10" class="node"><title>Creating elements II</title>
<g id="a_node10"><a xlink:href="sections/03-html-basics/02-html-anatomy.md#level---creating-elements-ii" xlink:title="Creating elements II">
<path fill="none" stroke="black" stroke-width="0.5" d="M1483.12,-133C1483.12,-133 1392.25,-133 1392.25,-133 1386.25,-133 1380.25,-127 1380.25,-121 1380.25,-121 1380.25,-109 1380.25,-109 1380.25,-103 1386.25,-97 1392.25,-97 1392.25,-97 1483.12,-97 1483.12,-97 1489.12,-97 1495.12,-103 1495.12,-109 1495.12,-109 1495.12,-121 1495.12,-121 1495.12,-127 1489.12,-133 1483.12,-133"/>
<text text-anchor="middle" x="1437.69" y="-111.7" font-family="Helvetica,sans-Serif" font-size="11.00" fill="#0000ff">Creating elements II</text>
</a>
</g>
</g>
<!-- Creating elements I&#45;&gt;Creating elements II -->
<g id="edge11" class="edge"><title>Creating elements I&#45;&gt;Creating elements II</title>
<path fill="none" stroke="black" d="M1344.48,-115C1352.92,-115 1361.72,-115 1370.38,-115"/>
<polygon fill="black" stroke="black" points="1370.46,-118.5 1380.46,-115 1370.46,-111.5 1370.46,-118.5"/>
</g>
<!-- Glitch setup -->
<g id="node11" class="node"><title>Glitch setup</title>
<g id="a_node11"><a xlink:href="sections/03-html-basics/02-html-anatomy.md#level---glitch-setup" xlink:title="Glitch setup">
<path fill="none" stroke="black" stroke-width="0.5" d="M1593.03,-133C1593.03,-133 1542.86,-133 1542.86,-133 1536.86,-133 1530.86,-127 1530.86,-121 1530.86,-121 1530.86,-109 1530.86,-109 1530.86,-103 1536.86,-97 1542.86,-97 1542.86,-97 1593.03,-97 1593.03,-97 1599.03,-97 1605.03,-103 1605.03,-109 1605.03,-109 1605.03,-121 1605.03,-121 1605.03,-127 1599.03,-133 1593.03,-133"/>
<text text-anchor="middle" x="1567.94" y="-111.7" font-family="Helvetica,sans-Serif" font-size="11.00" fill="#0000ff">Glitch setup</text>
</a>
</g>
</g>
<!-- Creating elements II&#45;&gt;Glitch setup -->
<g id="edge12" class="edge"><title>Creating elements II&#45;&gt;Glitch setup</title>
<path fill="none" stroke="black" d="M1494.94,-115C1503.46,-115 1512.17,-115 1520.45,-115"/>
<polygon fill="black" stroke="black" points="1520.67,-118.5 1530.66,-115 1520.66,-111.5 1520.67,-118.5"/>
</g>
<!-- Glitch setup&#45;&gt;Glitch I -->
<g id="edge13" class="edge"><title>Glitch setup&#45;&gt;Glitch I</title>
<path fill="none" stroke="black" d="M1591.6,-96.6198C1605.48,-85.3562 1623.42,-70.7998 1638.51,-58.5566"/>
<polygon fill="black" stroke="black" points="1640.99,-61.0471 1646.55,-52.0284 1636.58,-55.6115 1640.99,-61.0471"/>
</g>
<!-- Glitch II -->
<g id="node12" class="node"><title>Glitch II</title>
<g id="a_node12"><a xlink:href="sections/03-html-basics/02-html-anatomy.md#level---glitch-ii-iv" xlink:title="Glitch II">
<path fill="none" stroke="black" stroke-width="0.5" d="M1684.77,-106C1684.77,-106 1654.77,-106 1654.77,-106 1648.77,-106 1642.77,-100 1642.77,-94 1642.77,-94 1642.77,-82 1642.77,-82 1642.77,-76 1648.77,-70 1654.77,-70 1654.77,-70 1684.77,-70 1684.77,-70 1690.77,-70 1696.77,-76 1696.77,-82 1696.77,-82 1696.77,-94 1696.77,-94 1696.77,-100 1690.77,-106 1684.77,-106"/>
<text text-anchor="middle" x="1669.77" y="-84.7" font-family="Helvetica,sans-Serif" font-size="11.00" fill="#0000ff">Glitch II</text>
</a>
</g>
</g>
<!-- Glitch setup&#45;&gt;Glitch II -->
<g id="edge14" class="edge"><title>Glitch setup&#45;&gt;Glitch II</title>
<path fill="none" stroke="black" d="M1605.27,-105.176C1614.26,-102.744 1623.89,-100.14 1632.86,-97.7129"/>
<polygon fill="black" stroke="black" points="1633.9,-101.057 1642.64,-95.0672 1632.07,-94.2996 1633.9,-101.057"/>
</g>
<!-- Glitch III -->
<g id="node13" class="node"><title>Glitch III</title>
<g id="a_node13"><a xlink:href="sections/03-html-basics/02-html-anatomy.md#level---glitch-ii-iv" xlink:title="Glitch III">
<path fill="none" stroke="black" stroke-width="0.5" d="M1686.11,-160C1686.11,-160 1653.43,-160 1653.43,-160 1647.43,-160 1641.43,-154 1641.43,-148 1641.43,-148 1641.43,-136 1641.43,-136 1641.43,-130 1647.43,-124 1653.43,-124 1653.43,-124 1686.11,-124 1686.11,-124 1692.11,-124 1698.11,-130 1698.11,-136 1698.11,-136 1698.11,-148 1698.11,-148 1698.11,-154 1692.11,-160 1686.11,-160"/>
<text text-anchor="middle" x="1669.77" y="-138.7" font-family="Helvetica,sans-Serif" font-size="11.00" fill="#0000ff">Glitch III</text>
</a>
</g>
</g>
<!-- Glitch setup&#45;&gt;Glitch III -->
<g id="edge15" class="edge"><title>Glitch setup&#45;&gt;Glitch III</title>
<path fill="none" stroke="black" d="M1605.27,-124.824C1613.84,-127.143 1622.99,-129.619 1631.61,-131.948"/>
<polygon fill="black" stroke="black" points="1630.83,-135.364 1641.4,-134.597 1632.66,-128.607 1630.83,-135.364"/>
</g>
<!-- Glitch IV -->
<g id="node14" class="node"><title>Glitch IV</title>
<g id="a_node14"><a xlink:href="sections/03-html-basics/02-html-anatomy.md#level---glitch-ii-iv" xlink:title="Glitch IV">
<path fill="none" stroke="black" stroke-width="0.5" d="M1686.34,-214C1686.34,-214 1653.2,-214 1653.2,-214 1647.2,-214 1641.2,-208 1641.2,-202 1641.2,-202 1641.2,-190 1641.2,-190 1641.2,-184 1647.2,-178 1653.2,-178 1653.2,-178 1686.34,-178 1686.34,-178 1692.34,-178 1698.34,-184 1698.34,-190 1698.34,-190 1698.34,-202 1698.34,-202 1698.34,-208 1692.34,-214 1686.34,-214"/>
<text text-anchor="middle" x="1669.77" y="-192.7" font-family="Helvetica,sans-Serif" font-size="11.00" fill="#0000ff">Glitch IV</text>
</a>
</g>
</g>
<!-- Glitch setup&#45;&gt;Glitch IV -->
<g id="edge16" class="edge"><title>Glitch setup&#45;&gt;Glitch IV</title>
<path fill="none" stroke="black" d="M1591.6,-133.38C1605.48,-144.644 1623.42,-159.2 1638.51,-171.443"/>
<polygon fill="black" stroke="black" points="1636.58,-174.389 1646.55,-177.972 1640.99,-168.953 1636.58,-174.389"/>
</g>
<!-- Glitch II&#45;&gt;Space exit -->
<g id="edge18" class="edge"><title>Glitch II&#45;&gt;Space exit</title>
<path fill="none" stroke="black" d="M1696.87,-95.3066C1705.49,-97.7175 1715.3,-100.465 1724.81,-103.127"/>
<polygon fill="black" stroke="black" points="1723.98,-106.527 1734.55,-105.852 1725.86,-99.7861 1723.98,-106.527"/>
</g>
<!-- Glitch III&#45;&gt;Space exit -->
<g id="edge19" class="edge"><title>Glitch III&#45;&gt;Space exit</title>
<path fill="none" stroke="black" d="M1698.15,-134.335C1706.33,-132.047 1715.49,-129.482 1724.41,-126.987"/>
<polygon fill="black" stroke="black" points="1725.62,-130.283 1734.3,-124.218 1723.73,-123.542 1725.62,-130.283"/>
</g>
<!-- Glitch IV&#45;&gt;Space exit -->
<g id="edge20" class="edge"><title>Glitch IV&#45;&gt;Space exit</title>
<path fill="none" stroke="black" d="M1692.66,-177.62C1706.07,-166.356 1723.41,-151.8 1737.99,-139.557"/>
<polygon fill="black" stroke="black" points="1740.36,-142.139 1745.76,-133.028 1735.86,-136.779 1740.36,-142.139"/>
</g>
<!-- find the cape -->
<g id="node16" class="node"><title>find the cape</title>
<path fill="none" stroke="black" stroke-width="0.5" d="M484.791,-133C484.791,-133 429.807,-133 429.807,-133 423.807,-133 417.807,-127 417.807,-121 417.807,-121 417.807,-109 417.807,-109 417.807,-103 423.807,-97 429.807,-97 429.807,-97 484.791,-97 484.791,-97 490.791,-97 496.791,-103 496.791,-109 496.791,-109 496.791,-121 496.791,-121 496.791,-127 490.791,-133 484.791,-133"/>
<text text-anchor="middle" x="457.299" y="-111.7" font-family="Helvetica,sans-Serif" font-size="11.00" fill="#000000">find the cape</text>
</g>
<!-- Scrapyard play level&#45;&gt;find the cape -->
<g id="edge3" class="edge"><title>Scrapyard play level&#45;&gt;find the cape</title>
<path fill="none" stroke="black" d="M381.984,-115C390.445,-115 399.106,-115 407.388,-115"/>
<polygon fill="black" stroke="black" points="407.632,-118.5 417.632,-115 407.632,-111.5 407.632,-118.5"/>
</g>
<!-- find the cape&#45;&gt;Editing Text I -->
<g id="edge4" class="edge"><title>find the cape&#45;&gt;Editing Text I</title>
<path fill="none" stroke="black" d="M496.833,-115C505.188,-115 514.127,-115 522.807,-115"/>
<polygon fill="black" stroke="black" points="522.826,-118.5 532.826,-115 522.826,-111.5 522.826,-118.5"/>
</g>
<!-- Introduce portal&#45;&gt;Space play -->
<g id="edge9" class="edge"><title>Introduce portal&#45;&gt;Space play</title>
<path fill="none" stroke="black" d="M1090.73,-115C1099.18,-115 1107.99,-115 1116.41,-115"/>
<polygon fill="black" stroke="black" points="1116.42,-118.5 1126.42,-115 1116.42,-111.5 1116.42,-118.5"/>
</g>
<!-- Find a Monocle for Cecil -->
<g id="node19" class="node"><title>Find a Monocle for Cecil</title>
<path fill="none" stroke="black" stroke-width="0.5" d="M1960.32,-133C1960.32,-133 1850.11,-133 1850.11,-133 1844.11,-133 1838.11,-127 1838.11,-121 1838.11,-121 1838.11,-109 1838.11,-109 1838.11,-103 1844.11,-97 1850.11,-97 1850.11,-97 1960.32,-97 1960.32,-97 1966.32,-97 1972.32,-103 1972.32,-109 1972.32,-109 1972.32,-121 1972.32,-121 1972.32,-127 1966.32,-133 1960.32,-133"/>
<text text-anchor="middle" x="1905.22" y="-111.7" font-family="Helvetica,sans-Serif" font-size="11.00" fill="#000000">Find a Monocle for Cecil</text>
</g>
<!-- Space exit&#45;&gt;Find a Monocle for Cecil -->
<g id="edge21" class="edge"><title>Space exit&#45;&gt;Find a Monocle for Cecil</title>
<path fill="none" stroke="black" d="M1802.26,-115C1810.14,-115 1818.88,-115 1827.83,-115"/>
<polygon fill="black" stroke="black" points="1827.99,-118.5 1837.99,-115 1827.99,-111.5 1827.99,-118.5"/>
</g>
</g>
</svg>
